<svg width="16" height="16" viewBox="0 0 16 16" fill="none" xmlns="http://www.w3.org/2000/svg">
<path d="M12.6673 2.66659H11.334V1.99992C11.334 1.82311 11.2637 1.65354 11.1387 1.52851C11.0137 1.40349 10.8441 1.33325 10.6673 1.33325C10.4905 1.33325 10.3209 1.40349 10.1959 1.52851C10.0709 1.65354 10.0007 1.82311 10.0007 1.99992V2.66659H6.00065V1.99992C6.00065 1.82311 5.93041 1.65354 5.80539 1.52851C5.68036 1.40349 5.5108 1.33325 5.33398 1.33325C5.15717 1.33325 4.9876 1.40349 4.86258 1.52851C4.73756 1.65354 4.66732 1.82311 4.66732 1.99992V2.66659H3.33398C2.80355 2.66659 2.29484 2.8773 1.91977 3.25237C1.5447 3.62744 1.33398 4.13615 1.33398 4.66659V12.6666C1.33398 13.197 1.5447 13.7057 1.91977 14.0808C2.29484 14.4559 2.80355 14.6666 3.33398 14.6666H12.6673C13.1978 14.6666 13.7065 14.4559 14.0815 14.0808C14.4566 13.7057 14.6673 13.197 14.6673 12.6666V4.66659C14.6673 4.13615 14.4566 3.62744 14.0815 3.25237C13.7065 2.8773 13.1978 2.66659 12.6673 2.66659ZM13.334 12.6666C13.334 12.8434 13.2637 13.013 13.1387 13.138C13.0137 13.263 12.8441 13.3333 12.6673 13.3333H3.33398C3.15717 13.3333 2.9876 13.263 2.86258 13.138C2.73756 13.013 2.66732 12.8434 2.66732 12.6666V7.99992H13.334V12.6666ZM13.334 6.66659H2.66732V4.66659C2.66732 4.48977 2.73756 4.32021 2.86258 4.19518C2.9876 4.07016 3.15717 3.99992 3.33398 3.99992H4.66732V4.66659C4.66732 4.8434 4.73756 5.01297 4.86258 5.13799C4.9876 5.26301 5.15717 5.33325 5.33398 5.33325C5.5108 5.33325 5.68036 5.26301 5.80539 5.13799C5.93041 5.01297 6.00065 4.8434 6.00065 4.66659V3.99992H10.0007V4.66659C10.0007 4.8434 10.0709 5.01297 10.1959 5.13799C10.3209 5.26301 10.4905 5.33325 10.6673 5.33325C10.8441 5.33325 11.0137 5.26301 11.1387 5.13799C11.2637 5.01297 11.334 4.8434 11.334 4.66659V3.99992H12.6673C12.8441 3.99992 13.0137 4.07016 13.1387 4.19518C13.2637 4.32021 13.334 4.48977 13.334 4.66659V6.66659Z" fill="#333333"/>
</svg>
